<mxfile host="65bd71144e">
    <diagram id="ievVTJPeunXwsQaKEtZb" name="Page-1">
        <mxGraphModel dx="2084" dy="1176" grid="1" gridSize="10" guides="1" tooltips="1" connect="1" arrows="1" fold="1" page="1" pageScale="1" pageWidth="850" pageHeight="1100" math="0" shadow="0">
            <root>
                <mxCell id="0"/>
                <mxCell id="1" parent="0"/>
                <mxCell id="4" value="" style="edgeStyle=none;html=1;fillColor=#0000CC;strokeColor=#00FF00;" edge="1" parent="1" source="2" target="3">
                    <mxGeometry relative="1" as="geometry"/>
                </mxCell>
                <mxCell id="2" value="Start" style="ellipse;whiteSpace=wrap;html=1;fillColor=#0000CC;strokeColor=#00FF00;" vertex="1" parent="1">
                    <mxGeometry x="60" y="10" width="120" height="80" as="geometry"/>
                </mxCell>
                <mxCell id="6" value="" style="edgeStyle=none;html=1;fillColor=#0000CC;strokeColor=#00FF00;" edge="1" parent="1" source="3" target="5">
                    <mxGeometry relative="1" as="geometry"/>
                </mxCell>
                <mxCell id="3" value="Initialize Vector" style="whiteSpace=wrap;html=1;fillColor=#0000CC;strokeColor=#00FF00;" vertex="1" parent="1">
                    <mxGeometry x="60" y="120" width="120" height="60" as="geometry"/>
                </mxCell>
                <mxCell id="8" value="" style="edgeStyle=none;html=1;fillColor=#0000CC;strokeColor=#00FF00;" edge="1" parent="1" source="5" target="7">
                    <mxGeometry relative="1" as="geometry"/>
                </mxCell>
                <mxCell id="10" value="" style="edgeStyle=none;html=1;fillColor=#0000CC;strokeColor=#00FF00;" edge="1" parent="1" source="5" target="9">
                    <mxGeometry relative="1" as="geometry"/>
                </mxCell>
                <mxCell id="5" value="Call 'makePerson'function" style="whiteSpace=wrap;html=1;fillColor=#0000CC;strokeColor=#00FF00;" vertex="1" parent="1">
                    <mxGeometry x="60" y="200" width="120" height="60" as="geometry"/>
                </mxCell>
                <mxCell id="24" value="" style="edgeStyle=none;html=1;fillColor=#0000CC;strokeColor=#00FF00;" edge="1" parent="1" source="7" target="23">
                    <mxGeometry relative="1" as="geometry"/>
                </mxCell>
                <mxCell id="7" value="If fail to open&lt;br&gt;output: &quot;File Open Error&quot;" style="whiteSpace=wrap;html=1;fillColor=#0000CC;strokeColor=#00FF00;" vertex="1" parent="1">
                    <mxGeometry x="210" y="200" width="120" height="60" as="geometry"/>
                </mxCell>
                <mxCell id="12" value="" style="edgeStyle=none;html=1;fillColor=#0000CC;strokeColor=#00FF00;" edge="1" parent="1" source="9" target="11">
                    <mxGeometry relative="1" as="geometry"/>
                </mxCell>
                <mxCell id="9" value="If successful to open&lt;br&gt;output:&lt;br&gt;the number of records" style="whiteSpace=wrap;html=1;fillColor=#0000CC;strokeColor=#00FF00;" vertex="1" parent="1">
                    <mxGeometry x="60" y="290" width="120" height="60" as="geometry"/>
                </mxCell>
                <mxCell id="14" value="" style="edgeStyle=none;html=1;fillColor=#0000CC;strokeColor=#00FF00;" edge="1" parent="1" source="11" target="13">
                    <mxGeometry relative="1" as="geometry"/>
                </mxCell>
                <mxCell id="11" value="Call 'printPerson' function" style="whiteSpace=wrap;html=1;fillColor=#0000CC;strokeColor=#00FF00;" vertex="1" parent="1">
                    <mxGeometry x="60" y="380" width="120" height="60" as="geometry"/>
                </mxCell>
                <mxCell id="16" style="edgeStyle=none;html=1;exitX=0.5;exitY=1;exitDx=0;exitDy=0;entryX=0.5;entryY=0;entryDx=0;entryDy=0;fillColor=#0000CC;strokeColor=#00FF00;" edge="1" parent="1" source="13" target="15">
                    <mxGeometry relative="1" as="geometry"/>
                </mxCell>
                <mxCell id="13" value="call 'writeFile' Function" style="whiteSpace=wrap;html=1;fillColor=#0000CC;strokeColor=#00FF00;" vertex="1" parent="1">
                    <mxGeometry x="60" y="470" width="120" height="60" as="geometry"/>
                </mxCell>
                <mxCell id="18" value="" style="edgeStyle=none;html=1;fillColor=#0000CC;strokeColor=#00FF00;" edge="1" parent="1" source="15" target="17">
                    <mxGeometry relative="1" as="geometry"/>
                </mxCell>
                <mxCell id="20" value="" style="edgeStyle=none;html=1;fillColor=#0000CC;strokeColor=#00FF00;" edge="1" parent="1" source="15" target="19">
                    <mxGeometry relative="1" as="geometry"/>
                </mxCell>
                <mxCell id="15" value="call 'getRcord' function" style="whiteSpace=wrap;html=1;fillColor=#0000CC;strokeColor=#00FF00;" vertex="1" parent="1">
                    <mxGeometry x="60" y="550" width="120" height="60" as="geometry"/>
                </mxCell>
                <mxCell id="22" value="" style="edgeStyle=none;html=1;fillColor=#0000CC;strokeColor=#00FF00;" edge="1" parent="1" source="17" target="21">
                    <mxGeometry relative="1" as="geometry"/>
                </mxCell>
                <mxCell id="17" value="if file can't be opened output: &quot;File Open Error&quot;" style="whiteSpace=wrap;html=1;fillColor=#0000CC;strokeColor=#00FF00;" vertex="1" parent="1">
                    <mxGeometry x="210" y="550" width="120" height="60" as="geometry"/>
                </mxCell>
                <mxCell id="26" value="" style="edgeStyle=none;html=1;fillColor=#0000CC;strokeColor=#00FF00;" edge="1" parent="1" source="19" target="25">
                    <mxGeometry relative="1" as="geometry"/>
                </mxCell>
                <mxCell id="19" value="If it can open&amp;nbsp;&lt;br&gt;red the 'Person' structure from the file&amp;nbsp;&amp;nbsp;" style="whiteSpace=wrap;html=1;fillColor=#0000CC;strokeColor=#00FF00;" vertex="1" parent="1">
                    <mxGeometry x="60" y="650" width="120" height="60" as="geometry"/>
                </mxCell>
                <mxCell id="21" value="Exit Program" style="whiteSpace=wrap;html=1;fillColor=#0000CC;strokeColor=#00FF00;" vertex="1" parent="1">
                    <mxGeometry x="350" y="550" width="120" height="60" as="geometry"/>
                </mxCell>
                <mxCell id="23" value="Exit Program" style="whiteSpace=wrap;html=1;fillColor=#0000CC;strokeColor=#00FF00;" vertex="1" parent="1">
                    <mxGeometry x="360" y="200" width="120" height="60" as="geometry"/>
                </mxCell>
                <mxCell id="28" value="" style="edgeStyle=none;html=1;fillColor=#0000CC;strokeColor=#00FF00;" edge="1" parent="1" source="25" target="27">
                    <mxGeometry relative="1" as="geometry"/>
                </mxCell>
                <mxCell id="25" value="Print one person&lt;br&gt;first call" style="whiteSpace=wrap;html=1;fillColor=#0000CC;strokeColor=#00FF00;" vertex="1" parent="1">
                    <mxGeometry x="60" y="750" width="120" height="60" as="geometry"/>
                </mxCell>
                <mxCell id="30" value="" style="edgeStyle=none;html=1;fillColor=#0000CC;strokeColor=#00FF00;" edge="1" parent="1" source="27" target="29">
                    <mxGeometry relative="1" as="geometry"/>
                </mxCell>
                <mxCell id="27" value="print one person&lt;br&gt;second call" style="whiteSpace=wrap;html=1;fillColor=#0000CC;strokeColor=#00FF00;" vertex="1" parent="1">
                    <mxGeometry x="60" y="840" width="120" height="60" as="geometry"/>
                </mxCell>
                <mxCell id="29" value="End" style="ellipse;whiteSpace=wrap;html=1;fillColor=#0000CC;strokeColor=#00FF00;" vertex="1" parent="1">
                    <mxGeometry x="80" y="970" width="80" height="80" as="geometry"/>
                </mxCell>
            </root>
        </mxGraphModel>
    </diagram>
</mxfile>